<?xml version="1.0" standalone="no"?>
<!DOCTYPE svg PUBLIC "-//W3C//DTD SVG 20010904//EN"
 "http://www.w3.org/TR/2001/REC-SVG-20010904/DTD/svg10.dtd">
<svg version="1.0" xmlns="http://www.w3.org/2000/svg"
 width="512.000000pt" height="512.000000pt" viewBox="0 0 512.000000 512.000000"
 preserveAspectRatio="xMidYMid meet">
<metadata>
Created by potrace 1.14, written by Peter Selinger 2001-2017
</metadata>
<g transform="translate(0.000000,512.000000) scale(0.100000,-0.100000)"
fill="#000000" stroke="none">
<path d="M1790 4804 c-206 -119 -476 -275 -600 -346 -124 -72 -243 -141 -266
-154 -325 -184 -791 -459 -808 -476 -29 -31 -50 -66 -65 -108 -15 -45 -16
-1642 -1 -1687 13 -35 129 -107 175 -107 21 0 116 50 302 157 150 86 274 157
276 157 2 0 3 -30 4 -66 0 -75 18 -108 74 -136 76 -39 276 -14 460 57 228 88
475 251 524 345 24 46 22 166 -2 199 -25 32 -80 50 -178 57 -44 4 -81 7 -81 8
-2 1 372 216 605 349 76 44 124 93 148 157 17 42 18 106 18 872 0 806 -1 827
-20 848 -28 31 -137 90 -166 90 -14 0 -192 -96 -399 -216z"/>
<path d="M3290 4465 c-55 -14 -97 -40 -112 -69 -8 -14 -12 -216 -15 -657 l-3
-637 25 -30 c77 -91 326 -84 377 11 7 14 12 226 15 657 l4 637 -26 31 c-47 56
-170 83 -265 57z"/>
<path d="M3795 4179 c-52 -13 -114 -56 -121 -85 -3 -12 -7 -308 -7 -657 l-2
-635 24 -26 c33 -35 113 -60 188 -59 73 1 164 38 184 75 17 32 26 1268 9 1309
-25 60 -175 103 -275 78z"/>
<path d="M4299 3890 c-50 -13 -103 -46 -117 -72 -9 -17 -13 -198 -16 -653 -3
-538 -2 -634 11 -658 53 -104 343 -102 386 3 10 23 14 174 16 660 2 707 7 661
-74 700 -48 23 -152 34 -206 20z"/>
<path d="M4796 3599 c-55 -13 -102 -44 -114 -77 -17 -42 -23 -1257 -7 -1298
20 -50 104 -86 196 -85 88 1 170 34 192 78 13 24 15 125 16 666 l2 638 -32 30
c-54 50 -158 70 -253 48z"/>
<path d="M2684 3216 c-67 -30 -123 -114 -169 -252 l-26 -81 -47 13 c-116 33
-263 32 -322 -2 -57 -34 -74 -101 -46 -183 19 -52 82 -144 136 -198 l42 -42
-47 -53 c-62 -69 -101 -127 -130 -192 l-24 -53 -258 -150 c-669 -389 -819
-476 -832 -488 -20 -19 -20 -170 0 -190 12 -11 203 -125 354 -210 22 -13 272
-157 555 -320 906 -524 823 -480 889 -477 22 1 1718 981 1746 1008 15 16 15
178 0 192 -6 6 -251 148 -545 317 -294 169 -540 312 -547 317 -6 5 -15 22 -18
38 -9 40 -76 142 -135 204 l-48 51 40 45 c75 82 116 144 136 205 32 95 9 158
-70 190 -48 19 -181 22 -235 6 -18 -5 -33 -8 -33 -6 0 2 -18 -2 -39 -10 l-40
-14 -6 32 c-12 56 -57 160 -91 212 -57 87 -126 120 -190 91z m157 -119 c40
-61 95 -209 84 -227 -3 -5 -12 -10 -20 -10 -7 0 -50 -16 -94 -35 l-81 -34 -62
28 c-35 15 -79 33 -99 40 l-37 12 20 67 c41 137 104 229 166 243 40 8 80 -19
123 -84z m-416 -240 c43 -12 50 -17 49 -38 -1 -35 -14 -140 -20 -169 -7 -29
-157 -152 -176 -144 -20 8 -110 118 -140 170 -53 92 -45 160 20 188 44 19 185
15 267 -7z m854 17 c17 -4 43 -17 57 -31 23 -21 26 -30 22 -73 -6 -58 -47
-130 -122 -214 l-52 -59 -86 64 -85 64 -7 55 c-3 30 -9 71 -12 90 -12 77 -15
73 61 91 73 18 170 23 224 13z m-665 -79 c66 -27 67 -28 45 -42 -13 -7 -53
-31 -89 -52 -36 -22 -66 -38 -68 -36 -2 2 2 40 9 85 7 52 15 80 23 77 6 -3 42
-17 80 -32z m341 -50 c3 -33 7 -63 8 -66 4 -15 -20 -6 -83 31 -36 20 -73 41
-83 47 -15 8 -5 15 60 41 56 22 80 27 84 19 4 -7 10 -39 14 -72z m-156 -38
c22 -12 69 -39 105 -61 l65 -39 3 -84 c2 -47 0 -87 -3 -89 -4 -2 -51 21 -105
52 -132 74 -151 75 -269 4 -50 -29 -93 -55 -97 -57 -5 -2 -8 34 -8 81 l0 85
44 30 c77 54 190 111 208 105 9 -3 35 -15 57 -27z m-350 -222 c-1 -73 -4 -85
-20 -90 -22 -7 -113 61 -103 77 6 9 116 98 122 98 1 0 2 -38 1 -85z m629 39
c31 -25 58 -50 60 -54 2 -4 -19 -26 -46 -48 -65 -55 -75 -47 -77 62 0 47 1 86
3 86 2 0 29 -21 60 -46z m-713 -163 c-8 -13 -236 -143 -241 -138 -8 8 44 86
103 154 l55 63 44 -36 c24 -20 42 -39 39 -43z m929 -56 c39 -54 61 -95 52 -95
-3 0 -248 140 -255 146 -2 2 16 21 40 43 l44 39 38 -36 c22 -20 58 -64 81 -97z"/>
<path d="M3006 3065 c-44 -44 -18 -108 47 -113 27 -2 39 2 51 20 34 49 7 108
-49 108 -18 0 -40 -7 -49 -15z"/>
<path d="M2080 2523 c-30 -11 -50 -37 -50 -65 0 -63 80 -92 118 -43 20 26 21
33 9 71 -6 16 -49 48 -60 43 -1 0 -9 -3 -17 -6z"/>
<path d="M794 1033 c-20 -89 -17 -85 -74 -103 -60 -18 -46 -21 -183 39 l-44
19 -70 -42 c-38 -24 -77 -45 -86 -49 -14 -5 -17 -21 -17 -92 0 -81 -1 -85 -22
-86 -28 -1 -79 -8 -94 -14 -8 -2 -11 -43 -10 -127 l1 -123 45 -7 c25 -3 68 -7
95 -8 l50 -1 -31 -27 c-28 -24 -31 -33 -32 -82 l-1 -56 89 -52 89 -52 95 44
c92 43 97 44 138 33 43 -13 43 -13 57 -80 l14 -68 126 3 125 3 11 58 c11 63
18 71 77 81 28 5 50 1 85 -15 131 -60 135 -61 153 -44 9 8 19 15 23 15 3 0 33
16 66 36 l61 36 0 58 c0 54 -3 61 -32 84 l-33 26 50 1 c28 0 59 2 70 3 11 1
32 3 46 4 l27 2 -1 130 -1 130 -28 1 c-15 1 -37 3 -48 4 -11 1 -27 3 -35 4
-12 1 -15 17 -15 84 l0 82 -52 32 c-29 17 -69 40 -89 51 l-36 20 -74 -33 -74
-34 -67 16 -67 15 -12 54 -12 54 -123 0 -124 0 -6 -27z m272 -379 c66 -19 146
-71 142 -93 -5 -24 -103 -79 -166 -92 -125 -26 -275 -4 -357 53 -46 30 -51 48
-23 71 93 75 263 101 404 61z"/>
</g>
</svg>
